<svg xmlns="http://www.w3.org/2000/svg" width="256" height="256" viewBox="0 0 100 100"><rect width="100" height="100" rx="20" fill="#00dc82"></rect><path fill="#001e26" d="M44.38 38.07L44.38 38.07Q44.71 40.91 44.21 43.19Q43.72 45.46 43.19 46.98L43.19 46.98Q42.07 49.89 40.15 52.29Q38.24 54.70 35.96 56.49Q33.68 58.27 31.24 59.46Q28.80 60.64 26.69 61.11L26.69 61.11Q26.16 61.24 25.60 61.34Q25.04 61.44 25.10 61.30L25.10 61.30Q24.97 61.17 25.50 60.91Q26.03 60.64 26.49 60.45L26.49 60.45Q30.19 58.66 33.42 56.22Q36.65 53.78 38.96 50.35L38.96 50.35Q40.09 48.70 40.94 46.68Q41.80 44.67 42.13 42.49Q42.46 40.32 42.13 38.04Q41.80 35.76 40.61 33.58L40.61 33.58Q39.10 30.81 36.72 29.06Q34.34 27.31 31.51 26.42Q28.67 25.53 25.67 25.37Q22.66 25.20 19.89 25.66L19.89 25.66Q19.49 25.73 19.43 25.73Q19.36 25.73 19.23 25.66L19.23 25.66Q19.23 25.53 19.46 25.47Q19.69 25.40 19.89 25.27L19.89 25.27Q21.08 24.74 23.03 24.38Q24.97 24.01 27.35 24.15Q29.72 24.28 32.40 25.04Q35.07 25.80 37.78 27.58L37.78 27.58Q40.48 29.36 42.23 32.23Q43.98 35.10 44.38 38.07ZM40.22 35.30L40.22 35.30Q40.81 36.88 40.91 38.47Q41.01 40.05 40.78 41.54Q40.55 43.02 40.05 44.37Q39.56 45.73 38.90 46.78L38.90 46.78Q38.77 46.92 38.57 47.21Q38.37 47.51 38.17 47.81Q37.97 48.10 37.78 48.27Q37.58 48.43 37.51 48.37L37.51 48.37Q37.45 48.37 37.55 48.10Q37.64 47.84 37.74 47.51Q37.84 47.18 37.97 46.92Q38.11 46.65 38.17 46.52L38.17 46.52Q38.77 45.40 38.96 43.78Q39.16 42.16 39.06 40.45Q38.96 38.73 38.54 37.11Q38.11 35.50 37.31 34.44L37.31 34.44Q37.05 34.05 36.26 33.22Q35.47 32.40 34.15 31.47Q32.83 30.55 31.04 29.76Q29.26 28.96 27.02 28.77L27.02 28.77Q24.84 28.57 22.63 28.67Q20.42 28.77 18.47 29.10Q16.52 29.43 15.04 29.89Q13.55 30.35 12.83 30.75L12.83 30.75Q12.50 30.94 12.20 31.01Q11.90 31.08 11.90 31.01L11.90 31.01Q11.84 30.88 12.04 30.68Q12.23 30.48 12.37 30.35L12.37 30.35Q13.42 29.29 15.57 28.37Q17.71 27.45 20.32 26.88Q22.93 26.32 25.67 26.29Q28.40 26.26 30.58 26.98L30.58 26.98Q31.97 27.45 33.45 28.20Q34.94 28.96 36.23 30.02Q37.51 31.08 38.57 32.40Q39.62 33.72 40.22 35.30ZM17.65 59.46L17.65 59.46Q18.17 56.49 19.07 53.42Q19.96 50.35 20.88 47.18L20.88 47.18Q21.80 44.21 22.60 41.11Q23.39 38.01 23.52 34.44L23.52 34.44Q23.52 34.11 23.55 34.11Q23.59 34.11 23.65 34.11L23.65 34.11Q23.72 34.11 23.85 34.51L23.85 34.51Q24.58 36.16 24.41 38.90Q24.25 41.64 23.65 44.57Q23.06 47.51 22.30 50.25Q21.54 52.99 21.14 54.57L21.14 54.57Q20.81 55.76 20.55 56.78Q20.29 57.81 19.96 58.93L19.96 58.93Q22.33 57.34 24.61 55.73Q26.89 54.11 28.87 52.29Q30.85 50.48 32.40 48.43Q33.95 46.39 34.87 44.01L34.87 44.01Q36.39 40.05 34.77 36.85Q33.16 33.65 28.67 32.26L28.67 32.26Q25.30 31.27 21.87 31.27L21.87 31.27Q22.46 33.52 22.43 36.16Q22.40 38.80 21.87 40.58L21.87 40.58Q20.95 44.08 19.63 47.74Q18.31 51.40 16.99 54.57L16.99 54.57Q16.92 54.70 16.66 55.23Q16.39 55.76 16.19 55.69L16.19 55.69Q16.06 55.69 16.13 55.13Q16.19 54.57 16.19 54.44L16.19 54.44Q16.26 53.65 16.46 52.53Q16.66 51.40 16.85 50.22Q17.05 49.03 17.32 47.87Q17.58 46.72 17.91 45.93L17.91 45.93Q18.04 45.46 18.44 43.81Q18.83 42.16 19.23 39.99Q19.63 37.81 19.96 35.46Q20.29 33.12 20.42 31.27L20.42 31.27Q19.89 31.27 19.63 31.34L19.63 31.34Q19.69 34.05 19.13 36.85Q18.57 39.66 17.71 42.53Q16.85 45.40 15.86 48.30Q14.87 51.21 14.21 54.04L14.21 54.04Q13.69 56.22 13.42 58.66Q13.16 61.11 13.22 63.55Q13.29 65.99 13.82 68.33Q14.35 70.68 15.40 72.66L15.40 72.66Q15.60 72.99 15.44 72.95Q15.27 72.92 15.07 72.79L15.07 72.79Q13.29 70.74 12.43 68.30Q11.57 65.86 11.38 63.25Q11.18 60.64 11.54 57.94Q11.90 55.23 12.50 52.66L12.50 52.66Q13.16 49.89 14.02 47.11Q14.87 44.34 15.67 41.67Q16.46 39.00 17.15 36.45Q17.84 33.91 18.17 31.47L18.17 31.47Q16.26 31.74 14.48 32.23Q12.70 32.73 11.05 33.25L11.05 33.25Q10.52 33.39 10.45 33.25L10.45 33.25Q10.39 33.12 10.62 32.99Q10.85 32.86 10.91 32.79L10.91 32.79Q12.76 31.67 15.04 30.91Q17.32 30.15 19.76 29.85Q22.20 29.56 24.77 29.72Q27.35 29.89 29.86 30.61L29.86 30.61Q32.50 31.41 34.21 33.06Q35.93 34.71 36.75 36.78Q37.58 38.86 37.45 41.21Q37.31 43.55 36.26 45.73L36.26 45.73Q34.87 48.50 32.76 50.78Q30.65 53.05 28.04 54.97Q25.43 56.88 22.50 58.50Q19.56 60.12 16.66 61.57L16.66 61.57Q16.52 61.63 15.93 61.86Q15.34 62.10 15.27 61.96L15.27 61.96Q15.27 61.90 15.63 61.60Q16.00 61.30 16.39 61.04L16.39 61.04Q17.38 60.51 17.65 59.46ZM22.07 60.25L22.07 60.25Q23.06 59.72 24.54 58.86Q26.03 58.00 27.41 57.21Q28.80 56.42 29.82 55.89Q30.85 55.36 30.91 55.50L30.91 55.50Q30.98 55.56 30.68 55.92Q30.38 56.29 29.92 56.72Q29.46 57.15 29.00 57.54Q28.54 57.94 28.27 58.14L28.27 58.14Q26.95 59.06 25.67 59.79Q24.38 60.51 23.06 61.11L23.06 61.11Q21.94 61.63 20.78 62.03Q19.63 62.43 18.44 62.89L18.44 62.89Q18.11 63.81 17.88 64.74Q17.65 65.66 17.45 66.45L17.45 66.45Q17.38 66.78 17.28 67.11Q17.18 67.44 17.12 67.44L17.12 67.44Q16.99 67.38 16.95 66.95Q16.92 66.52 16.92 66.25L16.92 66.25Q16.92 65.66 16.92 64.83Q16.92 64.01 16.99 63.42L16.99 63.42Q16.52 63.55 16.10 63.81Q15.67 64.08 15.73 64.60L15.73 64.60Q15.73 66.58 15.93 68.17L15.93 68.17Q16.26 70.41 17.12 72.46L17.12 72.46Q17.18 72.59 17.28 72.79Q17.38 72.99 17.32 73.05L17.32 73.05Q17.18 73.12 16.72 72.79L16.72 72.79Q16.00 71.86 15.47 70.97Q14.94 70.08 14.61 68.23L14.61 68.23Q14.48 67.64 14.45 66.65Q14.41 65.66 14.48 64.80L14.48 64.80Q14.48 64.27 14.68 63.88Q14.87 63.48 15.53 63.15L15.53 63.15Q15.93 62.95 16.89 62.52Q17.84 62.10 18.90 61.63Q19.96 61.17 20.85 60.78Q21.74 60.38 22.07 60.25ZM59.62 25.14L59.62 25.14Q59.36 24.54 59.49 24.54L59.49 24.54Q59.69 24.54 59.95 24.84Q60.22 25.14 60.28 25.20L60.28 25.20Q60.94 26.19 61.73 27.35Q62.53 28.50 63.25 30.09Q63.98 31.67 64.57 33.75Q65.17 35.83 65.50 38.67L65.50 38.67Q65.89 41.90 65.66 45.03Q65.43 48.17 64.90 51.34L64.90 51.34Q64.84 51.47 64.77 52.00Q64.70 52.53 64.51 52.53L64.51 52.53Q64.37 52.53 64.24 52.03Q64.11 51.54 64.11 51.34L64.11 51.34Q63.98 50.61 63.85 49.62Q63.71 48.63 63.62 47.54Q63.52 46.45 63.48 45.43Q63.45 44.41 63.45 43.62L63.45 43.62Q63.45 43.35 63.42 42.46Q63.38 41.57 63.32 40.38Q63.25 39.19 63.09 37.77Q62.92 36.36 62.72 34.97L62.72 34.97Q62.86 37.02 62.72 39.06Q62.59 41.11 62.39 43.19Q62.20 45.27 62.06 47.34Q61.93 49.42 62.06 51.54L62.06 51.54Q62.26 55.63 63.71 59.85Q65.17 64.08 68.33 67.05L68.33 67.05Q68.73 67.44 68.66 67.44L68.66 67.44Q68.53 67.51 68.20 67.31L68.20 67.31Q65.89 65.99 64.37 64.14Q62.86 62.29 61.90 60.12Q60.94 57.94 60.48 55.59Q60.02 53.25 59.95 50.88L59.95 50.88Q59.95 50.68 59.92 50.51Q59.89 50.35 59.89 50.15L59.89 50.15Q58.57 53.91 56.95 57.41Q55.33 60.91 53.78 64.14Q52.23 67.38 50.88 70.25Q49.52 73.12 48.73 75.56L48.73 75.56Q48.60 75.89 48.53 75.89L48.53 75.89Q48.40 75.89 48.40 75.69Q48.40 75.49 48.40 75.43L48.40 75.43Q48.47 72.33 49.66 68.93Q50.84 65.53 52.46 61.86Q54.08 58.20 55.86 54.34Q57.64 50.48 58.96 46.45L58.96 46.45Q59.75 43.88 60.32 41.11Q60.88 38.34 61.01 35.56Q61.14 32.79 60.81 30.12Q60.48 27.45 59.62 25.14ZM67.81 63.15L67.81 63.15Q68.53 64.67 69.72 65.99L69.72 65.99Q70.18 63.22 71.50 60.48Q72.82 57.74 74.51 54.97Q76.19 52.20 78.04 49.42Q79.88 46.65 81.47 43.81L81.47 43.81Q82.66 41.77 83.48 39.39Q84.31 37.02 84.67 34.54Q85.03 32.07 84.87 29.62Q84.70 27.18 83.84 25.00L83.84 25.00Q83.65 24.67 83.78 24.54L83.78 24.54Q83.91 24.41 84.21 24.71Q84.50 25.00 84.57 25.14L84.57 25.14Q85.36 26.26 85.86 28.07Q86.35 29.89 86.58 32.10Q86.81 34.31 86.81 36.75Q86.81 39.19 86.62 41.64L86.62 41.64Q86.35 44.87 85.66 48.70Q84.97 52.53 83.98 55.69L83.98 55.69Q83.91 55.83 83.75 56.29Q83.58 56.75 83.38 56.75L83.38 56.75Q83.25 56.68 83.18 56.19Q83.12 55.69 83.12 55.56L83.12 55.56Q83.12 54.84 83.15 53.81Q83.18 52.79 83.25 51.70Q83.32 50.61 83.42 49.59Q83.51 48.57 83.65 47.84L83.65 47.84Q83.71 47.44 83.88 46.02Q84.04 44.61 84.17 42.82L84.17 42.82Q83.38 44.67 82.92 46.12Q82.46 47.58 82.13 48.96Q81.80 50.35 81.57 51.87Q81.34 53.38 81.14 55.43L81.14 55.43Q80.94 57.48 80.97 59.72Q81.01 61.96 81.44 64.14Q81.86 66.32 82.69 68.40Q83.51 70.48 84.83 72.19L84.83 72.19Q85.10 72.59 84.97 72.66L84.97 72.66Q84.83 72.72 84.64 72.52L84.64 72.52Q82.52 70.81 81.30 68.66Q80.08 66.52 79.49 64.14Q78.89 61.77 78.86 59.29Q78.83 56.82 79.09 54.44L79.09 54.44Q79.22 53.58 79.32 52.72Q79.42 51.87 79.55 50.94L79.55 50.94Q78.04 53.38 76.52 55.69Q75.00 58.00 73.68 60.28Q72.36 62.56 71.34 64.77Q70.31 66.98 69.79 69.16L69.79 69.16Q69.65 69.49 69.65 69.49L69.65 69.49Q69.52 69.49 69.52 69.22Q69.52 68.96 69.52 68.89L69.52 68.89Q69.52 68.37 69.52 67.84Q69.52 67.31 69.65 66.78L69.65 66.78Q69.13 66.52 68.73 66.29Q68.33 66.06 67.97 65.73Q67.61 65.40 67.25 64.93Q66.88 64.47 66.49 63.75L66.49 63.75Q66.16 63.09 65.83 62.16Q65.50 61.24 65.27 60.35Q65.03 59.46 65.00 58.83Q64.97 58.20 65.17 58.20L65.17 58.20Q65.30 58.20 65.46 58.43Q65.63 58.66 65.83 58.99Q66.02 59.32 66.16 59.65Q66.29 59.98 66.35 60.12L66.35 60.12Q66.68 60.91 67.05 61.67Q67.41 62.43 67.81 63.15ZM69.19 50.28L69.19 50.94Q70.64 48.10 72.20 45.43Q73.75 42.76 74.67 41.17L74.67 41.17Q76.25 38.34 77.97 35.60Q79.69 32.86 80.94 30.75L80.94 30.75Q81.07 30.42 81.24 30.15Q81.40 29.89 81.53 30.02L81.53 30.02Q81.67 30.02 81.60 30.35Q81.53 30.68 81.47 31.01L81.47 31.01Q80.54 35.76 78.14 39.99Q75.73 44.21 73.09 48.50L73.09 48.50Q72.16 49.95 71.47 50.91Q70.78 51.87 70.28 52.76Q69.79 53.65 69.46 54.70Q69.13 55.76 68.99 57.41L68.99 57.41Q69.26 56.68 69.59 56.02Q69.92 55.36 70.25 54.77L70.25 54.77Q72.10 51.60 74.41 48.43Q76.72 45.27 78.96 42.49L78.96 42.49Q79.09 42.36 79.46 41.93Q79.82 41.50 79.95 41.57L79.95 41.57Q80.08 41.64 79.92 42.16Q79.75 42.69 79.69 42.96L79.69 42.96Q79.36 43.68 78.86 44.74Q78.37 45.79 77.81 46.88Q77.24 47.97 76.65 48.99Q76.06 50.02 75.59 50.68L75.59 50.68Q75.33 51.07 74.47 52.26Q73.61 53.45 72.62 55.23Q71.63 57.01 70.68 59.26Q69.72 61.50 69.26 64.01L69.26 64.01Q69.06 63.61 68.76 63.02Q68.47 62.43 68.07 61.11L68.07 61.11Q66.88 56.95 66.78 52.69Q66.68 48.43 66.75 43.95L66.75 43.95Q66.82 41.11 66.78 38.27Q66.75 35.43 65.83 32.26L65.83 32.26Q65.76 32.00 65.83 31.87L65.83 31.87Q65.96 31.87 66.22 32.26L66.22 32.26Q67.41 33.52 68.00 35.93Q68.60 38.34 68.86 41.01Q69.13 43.68 69.16 46.22Q69.19 48.76 69.19 50.28L69.19 50.28ZM51.83 45.20L51.83 45.20Q52.96 41.77 54.38 38.27Q55.79 34.77 56.85 32.00L56.85 32.00Q56.98 31.67 57.15 31.34Q57.31 31.01 57.44 31.08L57.44 31.08Q57.58 31.08 57.54 31.50Q57.51 31.93 57.51 32.26L57.51 32.26Q56.92 37.68 55.13 43.02Q53.35 48.37 51.17 53.58L51.17 53.58Q49.85 56.88 48.34 60.21Q46.82 63.55 45.83 67.44L45.83 67.44Q45.70 67.77 45.73 67.84Q45.76 67.90 45.70 67.90L45.70 67.90Q45.50 67.77 45.50 67.31L45.50 67.31Q45.17 65.33 45.89 62.33Q46.62 59.32 47.74 56.12Q48.86 52.92 50.05 49.98Q51.24 47.05 51.83 45.20ZM49.00 60.91L49.00 60.91Q50.65 57.15 52.56 53.15Q54.47 49.16 56.26 45.53L56.26 45.53Q56.32 45.33 56.62 44.80Q56.92 44.28 57.18 44.34L57.18 44.34Q57.31 44.34 57.25 44.94Q57.18 45.53 57.05 45.79L57.05 45.79Q56.85 46.72 56.52 48.00Q56.19 49.29 55.76 50.64Q55.33 52.00 54.87 53.28Q54.41 54.57 54.01 55.43L54.01 55.43Q53.81 55.83 53.32 57.11Q52.82 58.40 52.13 60.18Q51.44 61.96 50.68 63.98Q49.92 65.99 49.26 67.80Q48.60 69.62 48.11 71.04Q47.61 72.46 47.54 73.05L47.54 73.05Q47.41 73.71 47.28 73.71L47.28 73.71Q47.15 73.71 47.12 73.45Q47.08 73.18 47.02 73.05L47.02 73.05Q46.69 72.26 46.72 70.74Q46.75 69.22 47.08 67.51Q47.41 65.79 47.91 64.01Q48.40 62.23 49.00 60.91ZM88.33 55.23L88.33 55.23Q88.00 58.20 87.31 61.17Q86.62 64.14 86.09 66.45L86.09 66.45Q85.82 67.31 85.69 67.24L85.69 67.24Q85.56 67.24 85.53 66.95Q85.49 66.65 85.43 66.32L85.43 66.32Q84.90 61.90 85.56 57.48Q86.22 53.05 87.01 48.43L87.01 48.43Q87.54 45.66 87.87 42.72Q88.20 39.79 87.87 36.42L87.87 36.42Q87.87 36.16 88.00 36.03L88.00 36.03Q88.13 36.03 88.17 36.19Q88.20 36.36 88.33 36.42L88.33 36.42Q89.32 37.87 89.49 40.41Q89.65 42.96 89.45 45.73Q89.26 48.50 88.89 51.07Q88.53 53.65 88.33 55.23ZM58.43 30.02L58.43 30.02Q58.30 28.63 58.07 27.45Q57.84 26.26 57.51 25.00L57.51 25.00Q57.44 24.87 57.44 24.67Q57.44 24.48 57.51 24.48L57.51 24.48Q57.71 24.48 57.91 24.67L57.91 24.67L58.17 24.94Q58.90 25.93 59.36 26.88Q59.82 27.84 59.95 30.02L59.95 30.02Q60.02 30.88 59.95 32.13Q59.89 33.39 59.72 34.51Q59.56 35.63 59.33 36.42Q59.09 37.21 58.90 37.15L58.90 37.15Q58.76 37.15 58.70 36.78Q58.63 36.42 58.60 35.96Q58.57 35.50 58.57 35.00Q58.57 34.51 58.57 34.31L58.57 34.31Q58.57 33.19 58.57 32.16Q58.57 31.14 58.43 30.02ZM82.59 29.16L82.59 29.16Q82.52 27.97 82.36 26.92Q82.19 25.86 81.86 24.74L81.86 24.74Q81.80 24.61 81.77 24.41Q81.73 24.21 81.86 24.28L81.86 24.28Q82.00 24.41 82.10 24.48Q82.19 24.54 82.33 24.61L82.33 24.61L82.46 24.74Q83.18 25.66 83.61 26.52Q84.04 27.38 84.11 29.36L84.11 29.36Q84.11 30.09 83.94 31.21Q83.78 32.33 83.55 33.35Q83.32 34.38 83.02 35.07Q82.72 35.76 82.46 35.63L82.46 35.63Q82.33 35.56 82.33 35.20Q82.33 34.84 82.33 34.41Q82.33 33.98 82.39 33.58Q82.46 33.19 82.46 32.99L82.46 32.99Q82.59 31.93 82.62 31.01Q82.66 30.09 82.59 29.16ZM84.90 68.23L84.90 68.23Q85.30 69.36 85.79 70.28Q86.29 71.20 86.81 72.13L86.81 72.13Q86.88 72.19 86.95 72.36Q87.01 72.52 86.88 72.52L86.88 72.52Q86.68 72.52 86.58 72.46Q86.48 72.39 86.35 72.33L86.35 72.33Q86.22 72.26 86.15 72.19L86.15 72.19Q85.23 71.47 84.64 70.81Q84.04 70.15 83.45 68.43L83.45 68.43Q83.25 67.77 83.05 66.78Q82.85 65.79 82.79 64.87Q82.72 63.94 82.79 63.28Q82.85 62.62 83.12 62.62L83.12 62.62Q83.18 62.62 83.32 62.92Q83.45 63.22 83.55 63.58Q83.65 63.94 83.75 64.31Q83.84 64.67 83.91 64.80L83.91 64.80Q84.24 65.73 84.44 66.58Q84.64 67.44 84.90 68.23Z"></path></svg>